<svg xmlns="http://www.w3.org/2000/svg" width="1600" height="1000" viewBox="0 0 1600 1000">
  <rect width="1600" height="1000" fill="#F5F4F0"/>
  <line x1="0" y1="0" x2="0" y2="1000" stroke="#D8D6D0" stroke-width="1"/><line x1="100" y1="0" x2="100" y2="1000" stroke="#D8D6D0" stroke-width="1"/><line x1="200" y1="0" x2="200" y2="1000" stroke="#D8D6D0" stroke-width="1"/><line x1="300" y1="0" x2="300" y2="1000" stroke="#D8D6D0" stroke-width="1"/><line x1="400" y1="0" x2="400" y2="1000" stroke="#D8D6D0" stroke-width="1"/><line x1="500" y1="0" x2="500" y2="1000" stroke="#D8D6D0" stroke-width="1"/><line x1="600" y1="0" x2="600" y2="1000" stroke="#D8D6D0" stroke-width="1"/><line x1="700" y1="0" x2="700" y2="1000" stroke="#D8D6D0" stroke-width="1"/><line x1="800" y1="0" x2="800" y2="1000" stroke="#D8D6D0" stroke-width="1"/><line x1="900" y1="0" x2="900" y2="1000" stroke="#D8D6D0" stroke-width="1"/><line x1="1000" y1="0" x2="1000" y2="1000" stroke="#D8D6D0" stroke-width="1"/><line x1="1100" y1="0" x2="1100" y2="1000" stroke="#D8D6D0" stroke-width="1"/><line x1="1200" y1="0" x2="1200" y2="1000" stroke="#D8D6D0" stroke-width="1"/><line x1="1300" y1="0" x2="1300" y2="1000" stroke="#D8D6D0" stroke-width="1"/><line x1="1400" y1="0" x2="1400" y2="1000" stroke="#D8D6D0" stroke-width="1"/><line x1="1500" y1="0" x2="1500" y2="1000" stroke="#D8D6D0" stroke-width="1"/><line x1="1600" y1="0" x2="1600" y2="1000" stroke="#D8D6D0" stroke-width="1"/><line x1="0" y1="0" x2="1600" y2="0" stroke="#D8D6D0" stroke-width="1"/><line x1="0" y1="100" x2="1600" y2="100" stroke="#D8D6D0" stroke-width="1"/><line x1="0" y1="200" x2="1600" y2="200" stroke="#D8D6D0" stroke-width="1"/><line x1="0" y1="300" x2="1600" y2="300" stroke="#D8D6D0" stroke-width="1"/><line x1="0" y1="400" x2="1600" y2="400" stroke="#D8D6D0" stroke-width="1"/><line x1="0" y1="500" x2="1600" y2="500" stroke="#D8D6D0" stroke-width="1"/><line x1="0" y1="600" x2="1600" y2="600" stroke="#D8D6D0" stroke-width="1"/><line x1="0" y1="700" x2="1600" y2="700" stroke="#D8D6D0" stroke-width="1"/><line x1="0" y1="800" x2="1600" y2="800" stroke="#D8D6D0" stroke-width="1"/><line x1="0" y1="900" x2="1600" y2="900" stroke="#D8D6D0" stroke-width="1"/><line x1="0" y1="1000" x2="1600" y2="1000" stroke="#D8D6D0" stroke-width="1"/>
  <text x="100" y="140" font-family="Inter, Helvetica, Arial, sans-serif" font-size="22" letter-spacing="4" fill="#737373">01 — LEDGER</text>
  <text x="100" y="560" font-family="'Instrument Serif', Georgia, 'Times New Roman', serif" font-size="150" fill="#181818">Ledger</text>
  <text x="100" y="640" font-family="Inter, Helvetica, Arial, sans-serif" font-size="30" fill="#737373">Double-entry, three currencies</text>
  <line x1="100" y1="900" x2="1500" y2="900" stroke="#181818" stroke-width="1.5"/>
  <text x="100" y="940" font-family="Inter, Helvetica, Arial, sans-serif" font-size="20" letter-spacing="3" fill="#737373">FAJAR.CODES</text>
  <text x="1500" y="940" text-anchor="end" font-family="Inter, Helvetica, Arial, sans-serif" font-size="20" letter-spacing="3" fill="#737373">JAKARTA, INDONESIA</text>
</svg>
